<svg width="100" height="100" viewBox="0 0 100 100" fill="none" xmlns="http://www.w3.org/2000/svg">
<rect width="100" height="100" fill="white"/>
<mask id="path-1-inside-1_3906_53986" fill="white">
<rect x="2" y="75" width="67" height="15" rx="2"/>
</mask>
<rect x="2" y="75" width="67" height="15" rx="2" fill="#3772F7" stroke="black" stroke-width="6" mask="url(#path-1-inside-1_3906_53986)"/>
<path d="M97 88.5H69C68.1716 88.5 67.5 87.8284 67.5 87V52C67.5 51.1716 68.1716 50.5 69 50.5H81.5905C82.0369 50.5 82.4601 50.6989 82.7451 51.0425L98.1546 69.6246C98.3778 69.8937 98.5 70.2324 98.5 70.5821V87C98.5 87.8284 97.8284 88.5 97 88.5Z" fill="#3772F7" stroke="black" stroke-width="3" stroke-linejoin="round"/>
<circle cx="83" cy="89" r="8.5" fill="white" stroke="black" stroke-width="3"/>
<circle cx="83" cy="89" r="2" fill="black"/>
<circle cx="18" cy="89" r="8.5" fill="white" stroke="black" stroke-width="3"/>
<circle cx="18" cy="89" r="2" fill="black"/>
<path d="M98 72.5H76C75.7239 72.5 75.5 72.2761 75.5 72V61C75.5 60.7239 75.7239 60.5 76 60.5H85.5H90.373C90.5128 60.5 90.6461 60.5585 90.7408 60.6613L98.3678 68.942C98.4528 69.0343 98.5 69.1552 98.5 69.2807V72C98.5 72.2761 98.2761 72.5 98 72.5Z" fill="white" stroke="black" stroke-width="3"/>
<path d="M12.5 76.6484V36.9705L40 15.0661L67.5 36.9705V76.6484H12.5Z" fill="white" stroke="black" stroke-width="3"/>
<path d="M1.5 35.9874C1.5 34.6705 2.11836 33.4302 3.16995 32.6376L37.2915 6.91979C38.8949 5.71124 41.1051 5.71124 42.7085 6.91979L76.8301 32.6376C77.8816 33.4302 78.5 34.6705 78.5 35.9874C78.5 39.4331 74.5757 41.4092 71.8074 39.3573L42.6796 17.7675C41.088 16.5877 38.912 16.5877 37.3204 17.7675L8.19257 39.3573C5.42434 41.4092 1.5 39.4331 1.5 35.9874Z" fill="#3772F7" stroke="black" stroke-width="3"/>
<path d="M45.4606 33.8284C47.0227 32.2663 49.5554 32.2663 51.1175 33.8284L53.2416 35.9526C54.8037 37.5147 54.8037 40.0473 53.2416 41.6094L51.6238 43.2273L43.8428 35.4463L45.4606 33.8284Z" fill="white" stroke="black" stroke-width="3"/>
<rect x="43.8438" y="35.4453" width="11.004" height="3.93" transform="rotate(45 43.8438 35.4453)" fill="white" stroke="black" stroke-width="3"/>
<path d="M21.299 58.4514C21.4824 58.0013 21.9627 57.7482 22.4375 57.8515L27.3795 58.9258C27.7622 59.009 28.0611 59.3079 28.1442 59.6906L29.2186 64.6325C29.3218 65.1074 29.0687 65.5877 28.6187 65.7711L21.894 68.5107L18.5593 65.176L21.299 58.4514Z" fill="white"/>
<path d="M21.894 68.5107L28.6187 65.7711C29.0687 65.5877 29.3218 65.1074 29.2186 64.6325L28.1442 59.6906C28.0611 59.3079 27.7622 59.009 27.3795 58.9258L22.4375 57.8515C21.9627 57.7482 21.4824 58.0013 21.299 58.4514L18.5593 65.176M21.894 68.5107L18.5593 65.176M21.894 68.5107L18.7893 69.5456C18.0076 69.8062 17.2638 69.0625 17.5244 68.2807L18.5593 65.176" stroke="black" stroke-width="3"/>
<path d="M41.0664 38.2266L44.9569 42.1171L26.616 60.458L22.1648 59.244C21.424 59.042 21.1779 58.1151 21.7208 57.5722L41.0664 38.2266Z" fill="#3772F7" stroke="black" stroke-width="3"/>
<path d="M44.957 42.125L48.8475 46.0155L29.5019 65.3611C28.959 65.904 28.0321 65.6579 27.8301 64.9171L26.6161 60.4659L44.957 42.125Z" fill="#3772F7" stroke="black" stroke-width="3"/>
<mask id="path-16-inside-2_3906_53986" fill="white">
<rect x="40.5957" y="65.75" width="22.8544" height="14.116" rx="2" transform="rotate(-45 40.5957 65.75)"/>
</mask>
<rect x="40.5957" y="65.75" width="22.8544" height="14.116" rx="2" transform="rotate(-45 40.5957 65.75)" fill="white" stroke="black" stroke-width="6" mask="url(#path-16-inside-2_3906_53986)"/>
<path d="M50.6857 64.2128C50.0999 63.627 49.1501 63.627 48.5643 64.2128C47.9786 64.7986 47.9786 65.7483 48.5643 66.3341L50.6857 64.2128ZM48.5643 66.3341L53.3174 71.0872L55.4388 68.9659L50.6857 64.2128L48.5643 66.3341Z" fill="black"/>
<path d="M55.9142 59.9315C55.3284 59.3457 54.3786 59.3457 53.7929 59.9315C53.2071 60.5173 53.2071 61.4671 53.7929 62.0528L55.9142 59.9315ZM53.7929 62.0528L58.5459 66.8059L60.6673 64.6846L55.9142 59.9315L53.7929 62.0528Z" fill="black"/>
<mask id="path-19-inside-3_3906_53986" fill="white">
<rect x="21.2168" y="35.9453" width="8.10963" height="37.2454" rx="2" transform="rotate(-45 21.2168 35.9453)"/>
</mask>
<rect x="21.2168" y="35.9453" width="8.10963" height="37.2454" rx="2" transform="rotate(-45 21.2168 35.9453)" fill="white" stroke="black" stroke-width="6" stroke-linejoin="round" mask="url(#path-19-inside-3_3906_53986)"/>
<path d="M41.7837 64.8284C40.2216 63.2663 40.2216 60.7337 41.7837 59.1716L50.1661 50.7892C51.7282 49.2271 54.2608 49.2271 55.8229 50.7892L57.016 51.9823L42.9768 66.0215L41.7837 64.8284Z" fill="white" stroke="black" stroke-width="3"/>
</svg>
