<svg width="20" height="21" viewBox="0 0 20 21" fill="none" xmlns="http://www.w3.org/2000/svg">
<path d="M10.0312 16.75C8.28639 16.75 6.80854 16.1447 5.59771 14.934C4.38674 13.7233 3.78125 12.2457 3.78125 10.5013C3.78125 8.75681 4.38674 7.27882 5.59771 6.06729C6.80854 4.85576 8.28639 4.25 10.0312 4.25C11.0056 4.25 11.9276 4.4666 12.7973 4.89979C13.6669 5.33313 14.3901 5.94451 14.9671 6.73396V4.25H16.2171V9.34604H11.121V8.09625H14.4127C13.9735 7.29167 13.3645 6.65785 12.5856 6.19479C11.8069 5.7316 10.9554 5.5 10.0312 5.5C8.64236 5.5 7.46181 5.98611 6.48958 6.95833C5.51736 7.93056 5.03125 9.11111 5.03125 10.5C5.03125 11.8889 5.51736 13.0694 6.48958 14.0417C7.46181 15.0139 8.64236 15.5 10.0312 15.5C11.1007 15.5 12.066 15.1944 12.9271 14.5833C13.7882 13.9722 14.3924 13.1667 14.7396 12.1667H16.0569C15.6787 13.5267 14.9338 14.6306 13.8221 15.4783C12.7104 16.3261 11.4468 16.75 10.0312 16.75Z" fill="#777F90"/>
</svg>
